# Blender v2.64 (sub 0) OBJ File: 'model.blend'
# www.blender.org
g Insert
v 0.125000 0.125000 0.000000
v 0.125000 -0.125000 0.000000
v -0.125000 -0.125000 0.000000
v -0.125000 0.125000 0.000000
v 0.125000 0.125000 0.187500
v 0.125000 -0.125000 0.187500
v -0.125000 -0.125000 0.187500
v -0.125000 0.125000 0.187500
vt 0.009766 0.562500
vt 0.009766 0.687500
vt 0.006836 0.687500
vt 0.006836 0.562500
vt 0.002930 0.687500
vt 0.002930 0.562500
vn 1.000000 0.000000 0.000000
vn 0.000000 -1.000000 0.000000
vn -1.000000 0.000000 0.000000
vn 0.000000 1.000000 0.000000
vn 0.000000 0.000000 -1.000000
vn 0.000000 0.000000 1.000000
s off
f 2/1/1 1/2/1 5/3/1 6/4/1
f 6/3/2 7/4/2 3/1/2 2/2/2
f 7/3/3 8/4/3 4/1/3 3/2/3
f 1/1/4 4/2/4 8/3/4 5/4/4
f 1/3/5 2/5/5 3/6/5 4/4/5
f 8/6/6 7/4/6 6/3/6 5/5/6
g Plate
v 0.312498 0.312500 -0.500000
v 0.312498 -0.312500 -0.500000
v -0.312498 -0.312500 -0.500000
v -0.312498 0.312500 -0.500000
v 0.312498 0.312500 -0.375000
v 0.312498 -0.312500 -0.375000
v -0.312498 -0.312500 -0.375000
v -0.312498 0.312500 -0.375000
v 0.125000 0.125000 -0.375000
v 0.125000 -0.125000 -0.375000
v -0.125000 -0.125000 -0.375000
v -0.125000 0.125000 -0.375000
v 0.125000 0.125000 -0.500000
v 0.125000 -0.125000 -0.500000
v -0.125000 -0.125000 -0.500000
v -0.125000 0.125000 -0.500000
vt 0.006836 0.906250
vt 0.006836 0.781250
vt 0.009766 0.687500
vt 0.009766 1.000000
vt 0.011719 0.687500
vt 0.011719 1.000000
vt 0.002930 0.781250
vt 0.002930 0.906250
vt 0.000000 1.000000
vt 0.000000 0.687500
vt 0.011719 0.781250
vt 0.013672 0.781250
vt 0.013672 0.906250
vt 0.011719 0.906250
s off
f 24/7/5 23/8/5 11/9/5 12/10/5
f 15/9/2 11/11/2 10/12/2 14/10/2
f 17/13/6 18/14/6 14/15/6 13/16/6
f 9/12/1 13/10/1 14/9/1 10/11/1
f 13/9/4 9/11/4 12/12/4 16/10/4
f 16/9/3 12/11/3 11/12/3 15/10/3
f 17/17/3 21/18/3 22/19/3 18/20/3
f 18/14/6 19/7/6 15/10/6 14/15/6
f 19/7/6 20/8/6 16/9/6 15/10/6
f 20/8/6 17/13/6 13/16/6 16/9/6
f 18/17/4 22/18/4 23/19/4 19/20/4
f 9/15/5 10/16/5 22/13/5 21/14/5
f 23/8/5 22/13/5 10/16/5 11/9/5
f 12/10/5 9/15/5 21/14/5 24/7/5
f 19/19/1 23/20/1 24/17/1 20/18/1
f 20/17/2 24/18/2 21/19/2 17/20/2
